<svg width="40" height="40" viewBox="0 0 40 40" fill="none" xmlns="http://www.w3.org/2000/svg">
<g clip-path="url(#clip0_248_10)">
<mask id="mask0_248_10" style="mask-type:luminance" maskUnits="userSpaceOnUse" x="0" y="0" width="40" height="40">
<path d="M40 0H0V40H40V0Z" fill="white"/>
</mask>
<g mask="url(#mask0_248_10)">
<path d="M10 5H30C32.7614 5 35 7.23858 35 10V30C35 32.7614 32.7614 35 30 35H10C7.23858 35 5 32.7614 5 30V10C5 7.23858 7.23858 5 10 5Z" fill="#226D44" stroke="white" stroke-width="2"/>
<rect x="9" y="10" width="11" height="20" rx="1" fill="#D9D9D9"/>
<path d="M9 11C9 10.4477 9.44772 10 10 10H19C19.5523 10 20 10.4477 20 11V13H9V11Z" fill="#333131"/>
<line x1="9" y1="13.5" x2="20" y2="13.5" stroke="black"/>
<line x1="11" y1="18.5" x2="19" y2="18.5" stroke="#333131"/>
<line x1="11" y1="20.5" x2="19" y2="20.5" stroke="#333131"/>
<line x1="11" y1="22.5" x2="19" y2="22.5" stroke="#333131"/>
<line x1="11" y1="24.5" x2="19" y2="24.5" stroke="#333131"/>
<circle cx="10.5" cy="11.5" r="0.5" fill="#D9D9D9"/>
<circle cx="10.5" cy="11.5" r="0.5" fill="#D9D9D9"/>
<circle cx="12.5" cy="11.5" r="0.5" fill="#D9D9D9"/>
<circle cx="10.5" cy="19.5" r="0.5" fill="#333131"/>
<circle cx="10.5" cy="21.5" r="0.5" fill="#333131"/>
<circle cx="10.5" cy="23.5" r="0.5" fill="#333131"/>
</g>
<g clip-path="url(#clip1_248_10)">
<path fill-rule="evenodd" clip-rule="evenodd" d="M31.4363 12.5C31.4363 12.3912 31.4263 12.28 31.406 12.1688L31.9533 11.6944L31.4339 10.8068L30.7433 11.0371C30.5689 10.8924 30.3701 10.7782 30.1604 10.7026L30.0181 10H28.9822L28.8398 10.7024C28.6278 10.7782 28.4325 10.8906 28.2566 11.0368L27.5663 10.8068L27.0469 11.6944L27.5942 12.1688C27.5739 12.28 27.5639 12.3912 27.5639 12.5C27.5639 12.6088 27.5739 12.72 27.5942 12.8312L27.0469 13.3056L27.5663 14.1932L28.2569 13.9629C28.4313 14.1076 28.6301 14.2218 28.8398 14.2974L28.9822 15H30.018L30.1604 14.2976C30.3722 14.2218 30.5678 14.1094 30.7436 13.9632L31.4339 14.1935L31.9533 13.3059L31.406 12.8315C31.4263 12.72 31.4363 12.6088 31.4363 12.5M29.5001 13.5294C28.9325 13.5294 28.4707 13.0676 28.4707 12.5C28.4707 11.9324 28.9325 11.4706 29.5001 11.4706C30.0678 11.4706 30.5295 11.9324 30.5295 12.5C30.5295 13.0676 30.0678 13.5294 29.5001 13.5294Z" fill="black"/>
</g>
<g clip-path="url(#clip2_248_10)">
<path fill-rule="evenodd" clip-rule="evenodd" d="M25.4363 26.5C25.4363 26.3912 25.4263 26.28 25.406 26.1688L25.9533 25.6944L25.4339 24.8068L24.7433 25.0371C24.5689 24.8924 24.3701 24.7782 24.1604 24.7026L24.0181 24H22.9822L22.8398 24.7024C22.6278 24.7782 22.4325 24.8906 22.2566 25.0368L21.5663 24.8068L21.0469 25.6944L21.5942 26.1688C21.5739 26.28 21.5639 26.3912 21.5639 26.5C21.5639 26.6088 21.5739 26.72 21.5942 26.8312L21.0469 27.3056L21.5663 28.1932L22.2569 27.9629C22.4313 28.1076 22.6301 28.2218 22.8398 28.2974L22.9822 29H24.018L24.1604 28.2976C24.3722 28.2218 24.5678 28.1094 24.7436 27.9632L25.4339 28.1935L25.9533 27.3059L25.406 26.8315C25.4263 26.72 25.4363 26.6088 25.4363 26.5M23.5001 27.5294C22.9325 27.5294 22.4707 27.0676 22.4707 26.5C22.4707 25.9324 22.9325 25.4706 23.5001 25.4706C24.0678 25.4706 24.5295 25.9324 24.5295 26.5C24.5295 27.0676 24.0678 27.5294 23.5001 27.5294Z" fill="black"/>
</g>
<g clip-path="url(#clip3_248_10)">
<path d="M23.5002 13.9998C23.2792 13.9998 23.0675 14.0498 22.928 14.2086C22.7885 14.3673 22.7841 14.5366 22.776 14.6396C22.7679 14.7425 22.7612 14.8066 22.7456 14.8463C22.7301 14.886 22.7172 14.9164 22.6198 14.9727C22.5225 15.029 22.4898 15.025 22.4477 15.0186C22.4056 15.0123 22.3469 14.9861 22.2538 14.9416C22.1607 14.8971 22.0121 14.8163 21.8051 14.858C21.5982 14.8996 21.449 15.0582 21.3385 15.2499C21.228 15.4416 21.1655 15.6503 21.233 15.8507C21.3005 16.051 21.4446 16.1396 21.5296 16.198C21.6146 16.2565 21.6666 16.2944 21.6932 16.3278C21.7197 16.3611 21.7396 16.3874 21.7396 16.5C21.7396 16.6127 21.7197 16.639 21.6932 16.6723C21.6666 16.7057 21.6146 16.7436 21.5296 16.8021C21.4446 16.8605 21.3005 16.9491 21.233 17.1494C21.1655 17.3498 21.228 17.5585 21.3385 17.7502C21.449 17.9419 21.5982 18.1005 21.8051 18.1421C22.0121 18.1838 22.1607 18.103 22.2538 18.0585C22.3469 18.014 22.4056 17.9878 22.4477 17.9815C22.4898 17.9751 22.5225 17.9711 22.6198 18.0274C22.7172 18.0837 22.7301 18.1141 22.7456 18.1538C22.7612 18.1935 22.7679 18.2576 22.776 18.3605C22.7841 18.4635 22.7885 18.6328 22.928 18.7915C23.0675 18.9503 23.2792 19.0003 23.5002 19.0003C23.7212 19.0003 23.9328 18.9503 24.0723 18.7915C24.2118 18.6328 24.2163 18.4635 24.2243 18.3605C24.2324 18.2576 24.2391 18.1935 24.2547 18.1538C24.2703 18.1141 24.2831 18.0837 24.3805 18.0274C24.4779 17.9711 24.5105 17.9751 24.5526 17.9815C24.5947 17.9878 24.6535 18.014 24.7465 18.0585C24.8396 18.103 24.9882 18.1838 25.1952 18.1421C25.4022 18.1005 25.5513 17.9419 25.6618 17.7502C25.7723 17.5585 25.8348 17.3498 25.7673 17.1494C25.6998 16.9491 25.5557 16.8605 25.4707 16.8021C25.3857 16.7436 25.3337 16.7057 25.3071 16.6723C25.2806 16.639 25.2608 16.6127 25.2608 16.5C25.2608 16.3874 25.2806 16.3611 25.3071 16.3278C25.3337 16.2944 25.3857 16.2565 25.4707 16.198C25.5557 16.1396 25.6998 16.051 25.7673 15.8507C25.8348 15.6503 25.7723 15.4416 25.6618 15.2499C25.5513 15.0582 25.4022 14.8996 25.1952 14.858C24.9882 14.8163 24.8396 14.8971 24.7465 14.9416C24.6535 14.9861 24.5947 15.0123 24.5526 15.0186C24.5105 15.025 24.4779 15.029 24.3805 14.9727C24.2831 14.9164 24.2703 14.886 24.2547 14.8463C24.2391 14.8066 24.2324 14.7425 24.2243 14.6396C24.2163 14.5366 24.2118 14.3673 24.0723 14.2086C23.9328 14.0498 23.7212 13.9998 23.5002 13.9998ZM23.5004 15.4166C24.102 15.4166 24.5837 15.8981 24.5837 16.5C24.5837 17.102 24.102 17.5835 23.5004 17.5835C22.8987 17.5835 22.4171 17.102 22.4171 16.5C22.4171 15.8981 22.8987 15.4166 23.5004 15.4166Z" fill="black"/>
<path d="M23.5002 15.8335C23.135 15.8335 22.8335 16.1352 22.8335 16.5001C22.8335 16.8649 23.135 17.1667 23.5002 17.1667C23.8653 17.1667 24.1668 16.8649 24.1668 16.5001C24.1668 16.1352 23.8653 15.8335 23.5002 15.8335Z" fill="#020202"/>
</g>
<g clip-path="url(#clip4_248_10)">
<path d="M29.5002 18.9998C29.2792 18.9998 29.0675 19.0498 28.928 19.2086C28.7885 19.3673 28.7841 19.5366 28.776 19.6396C28.7679 19.7425 28.7612 19.8066 28.7456 19.8463C28.7301 19.886 28.7172 19.9164 28.6198 19.9727C28.5225 20.029 28.4898 20.025 28.4477 20.0186C28.4056 20.0123 28.3469 19.9861 28.2538 19.9416C28.1607 19.8971 28.0121 19.8163 27.8051 19.858C27.5982 19.8996 27.449 20.0582 27.3385 20.2499C27.228 20.4416 27.1655 20.6503 27.233 20.8507C27.3005 21.051 27.4446 21.1396 27.5296 21.198C27.6146 21.2565 27.6666 21.2944 27.6932 21.3278C27.7197 21.3611 27.7396 21.3874 27.7396 21.5C27.7396 21.6127 27.7197 21.639 27.6932 21.6723C27.6666 21.7057 27.6146 21.7436 27.5296 21.8021C27.4446 21.8605 27.3005 21.9491 27.233 22.1494C27.1655 22.3498 27.228 22.5585 27.3385 22.7502C27.449 22.9419 27.5982 23.1005 27.8051 23.1421C28.0121 23.1838 28.1607 23.103 28.2538 23.0585C28.3469 23.014 28.4056 22.9878 28.4477 22.9815C28.4898 22.9751 28.5225 22.9711 28.6198 23.0274C28.7172 23.0837 28.7301 23.1141 28.7456 23.1538C28.7612 23.1935 28.7679 23.2576 28.776 23.3605C28.7841 23.4635 28.7885 23.6328 28.928 23.7915C29.0675 23.9503 29.2792 24.0003 29.5002 24.0003C29.7212 24.0003 29.9328 23.9503 30.0723 23.7915C30.2118 23.6328 30.2163 23.4635 30.2243 23.3605C30.2324 23.2576 30.2391 23.1935 30.2547 23.1538C30.2703 23.1141 30.2831 23.0837 30.3805 23.0274C30.4779 22.9711 30.5105 22.9751 30.5526 22.9815C30.5947 22.9878 30.6535 23.014 30.7465 23.0585C30.8396 23.103 30.9882 23.1838 31.1952 23.1421C31.4022 23.1005 31.5513 22.9419 31.6618 22.7502C31.7723 22.5585 31.8348 22.3498 31.7673 22.1494C31.6998 21.9491 31.5557 21.8605 31.4707 21.8021C31.3857 21.7436 31.3337 21.7057 31.3071 21.6723C31.2806 21.639 31.2608 21.6127 31.2608 21.5C31.2608 21.3874 31.2806 21.3611 31.3071 21.3278C31.3337 21.2944 31.3857 21.2565 31.4707 21.198C31.5557 21.1396 31.6998 21.051 31.7673 20.8507C31.8348 20.6503 31.7723 20.4416 31.6618 20.2499C31.5513 20.0582 31.4022 19.8996 31.1952 19.858C30.9882 19.8163 30.8396 19.8971 30.7465 19.9416C30.6535 19.9861 30.5947 20.0123 30.5526 20.0186C30.5105 20.025 30.4779 20.029 30.3805 19.9727C30.2831 19.9164 30.2703 19.886 30.2547 19.8463C30.2391 19.8066 30.2324 19.7425 30.2243 19.6396C30.2163 19.5366 30.2118 19.3673 30.0723 19.2086C29.9328 19.0498 29.7212 18.9998 29.5002 18.9998ZM29.5004 20.4166C30.102 20.4166 30.5837 20.8981 30.5837 21.5C30.5837 22.102 30.102 22.5835 29.5004 22.5835C28.8987 22.5835 28.4171 22.102 28.4171 21.5C28.4171 20.8981 28.8987 20.4166 29.5004 20.4166Z" fill="black"/>
<path d="M29.5002 20.8335C29.135 20.8335 28.8335 21.1352 28.8335 21.5001C28.8335 21.8649 29.135 22.1667 29.5002 22.1667C29.8653 22.1667 30.1668 21.8649 30.1668 21.5001C30.1668 21.1352 29.8653 20.8335 29.5002 20.8335Z" fill="#020202"/>
</g>
</g>
<defs>
<clipPath id="clip0_248_10">
<rect width="40" height="40" fill="white"/>
</clipPath>
<clipPath id="clip1_248_10">
<rect width="5" height="5" fill="white" transform="translate(27 10)"/>
</clipPath>
<clipPath id="clip2_248_10">
<rect width="5" height="5" fill="white" transform="translate(21 24)"/>
</clipPath>
<clipPath id="clip3_248_10">
<rect width="5" height="5" fill="white" transform="translate(21 14)"/>
</clipPath>
<clipPath id="clip4_248_10">
<rect width="5" height="5" fill="white" transform="translate(27 19)"/>
</clipPath>
</defs>
</svg>
